<mxfile host="65bd71144e">
    <diagram id="LfCzdrSlMp3ZznfIHX8q" name="Consolidated_ER_diagram">
        <mxGraphModel dx="576" dy="578" grid="0" gridSize="10" guides="1" tooltips="1" connect="1" arrows="1" fold="1" page="1" pageScale="1" pageWidth="850" pageHeight="1100" background="#ffffff" math="0" shadow="0">
            <root>
                <mxCell id="0"/>
                <mxCell id="1" parent="0"/>
                <mxCell id="2" value="FirstName" style="ellipse;whiteSpace=wrap;html=1;align=center;fillColor=#f5f5f5;strokeColor=#666666;fontColor=#0A0A0A;" parent="1" vertex="1">
                    <mxGeometry x="96.5" y="162.5" width="80" height="20" as="geometry"/>
                </mxCell>
                <mxCell id="3" value="Citizen" style="whiteSpace=wrap;html=1;align=center;fontStyle=1;fillColor=#d5e8d4;strokeColor=#82b366;fontColor=#0A0A0A;" parent="1" vertex="1">
                    <mxGeometry x="254" y="215.5" width="100" height="40" as="geometry"/>
                </mxCell>
                <mxCell id="4" value="PhoneNumber" style="ellipse;whiteSpace=wrap;html=1;align=center;fillColor=#f5f5f5;strokeColor=#666666;fontColor=#0A0A0A;" parent="1" vertex="1">
                    <mxGeometry x="96.5" y="215.5" width="98.5" height="20" as="geometry"/>
                </mxCell>
                <mxCell id="5" value="Email" style="ellipse;whiteSpace=wrap;html=1;align=center;fillColor=#f5f5f5;strokeColor=#666666;fontColor=#0A0A0A;" parent="1" vertex="1">
                    <mxGeometry x="176.5" y="235.5" width="50" height="20" as="geometry"/>
                </mxCell>
                <mxCell id="6" value="Category" style="ellipse;whiteSpace=wrap;html=1;align=center;fillColor=#f5f5f5;strokeColor=#666666;fontColor=#0A0A0A;" parent="1" vertex="1">
                    <mxGeometry x="153.5" y="139" width="70" height="20" as="geometry"/>
                </mxCell>
                <mxCell id="7" value="" style="endArrow=none;html=1;rounded=0;entryX=0;entryY=0;entryDx=0;entryDy=0;exitX=1;exitY=0.5;exitDx=0;exitDy=0;fontColor=#0A0A0A;strokeColor=#030303;" parent="1" source="2" target="3" edge="1">
                    <mxGeometry relative="1" as="geometry">
                        <mxPoint x="254" y="65.5" as="sourcePoint"/>
                        <mxPoint x="414" y="65.5" as="targetPoint"/>
                    </mxGeometry>
                </mxCell>
                <mxCell id="8" value="" style="endArrow=none;html=1;rounded=0;exitX=1;exitY=0.5;exitDx=0;exitDy=0;entryX=0;entryY=0.5;entryDx=0;entryDy=0;fontColor=#0A0A0A;strokeColor=#030303;" parent="1" source="4" target="3" edge="1">
                    <mxGeometry relative="1" as="geometry">
                        <mxPoint x="264" y="75.5" as="sourcePoint"/>
                        <mxPoint x="294" y="145.5" as="targetPoint"/>
                    </mxGeometry>
                </mxCell>
                <mxCell id="9" value="" style="endArrow=none;html=1;rounded=0;entryX=0;entryY=0.75;entryDx=0;entryDy=0;exitX=1;exitY=0.5;exitDx=0;exitDy=0;fontColor=#0A0A0A;strokeColor=#030303;" parent="1" source="5" target="3" edge="1">
                    <mxGeometry relative="1" as="geometry">
                        <mxPoint x="284" y="95.5" as="sourcePoint"/>
                        <mxPoint x="299" y="175.5" as="targetPoint"/>
                    </mxGeometry>
                </mxCell>
                <mxCell id="10" value="Facilitiy" style="whiteSpace=wrap;html=1;align=center;fontStyle=1;fillColor=#d5e8d4;strokeColor=#82b366;fontColor=#0A0A0A;rounded=1;" parent="1" vertex="1">
                    <mxGeometry x="443.5" y="359" width="100" height="40" as="geometry"/>
                </mxCell>
                <mxCell id="11" value="Kind" style="ellipse;whiteSpace=wrap;html=1;align=center;fillColor=#f5f5f5;strokeColor=#666666;fontColor=#0A0A0A;" parent="1" vertex="1">
                    <mxGeometry x="514" y="309" width="50" height="20" as="geometry"/>
                </mxCell>
                <mxCell id="12" value="Item" style="rounded=1;arcSize=10;whiteSpace=wrap;html=1;align=center;fontStyle=1;fillColor=#d5e8d4;strokeColor=#82b366;fontColor=#0A0A0A;" parent="1" vertex="1">
                    <mxGeometry x="329" y="537.6600000000001" width="100" height="40" as="geometry"/>
                </mxCell>
                <mxCell id="14" value="Name" style="ellipse;whiteSpace=wrap;html=1;align=center;fillColor=#f5f5f5;strokeColor=#666666;fontColor=#0A0A0A;" parent="1" vertex="1">
                    <mxGeometry x="251.5" y="555.71" width="50" height="20" as="geometry"/>
                </mxCell>
                <mxCell id="15" value="Amount" style="ellipse;whiteSpace=wrap;html=1;align=center;fillColor=#f5f5f5;strokeColor=#666666;fontColor=#0A0A0A;" parent="1" vertex="1">
                    <mxGeometry x="456.5" y="546.0000000000002" width="50" height="23.33" as="geometry"/>
                </mxCell>
                <mxCell id="16" value="" style="endArrow=none;html=1;rounded=0;entryX=0;entryY=0.5;entryDx=0;entryDy=0;exitX=1;exitY=0.5;exitDx=0;exitDy=0;fontColor=#0A0A0A;strokeColor=#0A0A0A;" parent="1" source="14" target="12" edge="1">
                    <mxGeometry relative="1" as="geometry">
                        <mxPoint x="429" y="357.6599999999999" as="sourcePoint"/>
                        <mxPoint x="499" y="317.6599999999999" as="targetPoint"/>
                    </mxGeometry>
                </mxCell>
                <mxCell id="17" value="" style="endArrow=none;html=1;rounded=0;entryX=1;entryY=0.5;entryDx=0;entryDy=0;exitX=0;exitY=0.5;exitDx=0;exitDy=0;fontColor=#0A0A0A;strokeColor=#030303;" parent="1" source="15" target="12" edge="1">
                    <mxGeometry relative="1" as="geometry">
                        <mxPoint x="319" y="567.6600000000001" as="sourcePoint"/>
                        <mxPoint x="374" y="537.6600000000001" as="targetPoint"/>
                    </mxGeometry>
                </mxCell>
                <mxCell id="18" value="Makes" style="shape=rhombus;perimeter=rhombusPerimeter;whiteSpace=wrap;html=1;align=center;fillColor=#dae8fc;strokeColor=#6c8ebf;fontStyle=0;fontColor=#0A0A0A;" parent="1" vertex="1">
                    <mxGeometry x="380.5" y="134.5" width="80" height="40" as="geometry"/>
                </mxCell>
                <mxCell id="19" value="" style="endArrow=none;html=1;rounded=0;exitX=1;exitY=0.75;exitDx=0;exitDy=0;entryX=0;entryY=0.5;entryDx=0;entryDy=0;fontColor=#0A0A0A;strokeColor=#030303;" parent="1" source="3" target="18" edge="1">
                    <mxGeometry relative="1" as="geometry">
                        <mxPoint x="548.2" y="-61" as="sourcePoint"/>
                        <mxPoint x="550" y="-30.480000000000018" as="targetPoint"/>
                    </mxGeometry>
                </mxCell>
                <mxCell id="20" value="1" style="edgeLabel;html=1;align=center;verticalAlign=middle;resizable=0;points=[];fontColor=#030303;labelBackgroundColor=none;" parent="19" connectable="0" vertex="1">
                    <mxGeometry x="-0.6941" relative="1" as="geometry">
                        <mxPoint x="5" y="7" as="offset"/>
                    </mxGeometry>
                </mxCell>
                <mxCell id="21" value="Booking" style="rounded=1;arcSize=10;whiteSpace=wrap;html=1;align=center;fontStyle=1;fillColor=#d5e8d4;strokeColor=#82b366;fontColor=#0A0A0A;" parent="1" vertex="1">
                    <mxGeometry x="536.5" y="134.5" width="100" height="40" as="geometry"/>
                </mxCell>
                <mxCell id="22" value="Document" style="ellipse;whiteSpace=wrap;html=1;align=center;fillColor=#f5f5f5;strokeColor=#666666;fontColor=#0A0A0A;" parent="1" vertex="1">
                    <mxGeometry x="701.5" y="130.5" width="75" height="22" as="geometry"/>
                </mxCell>
                <mxCell id="23" value="&lt;span style=&quot;border-bottom: 1px dotted&quot;&gt;Note&lt;/span&gt;" style="ellipse;whiteSpace=wrap;html=1;align=center;fillColor=#f5f5f5;strokeColor=#666666;fontColor=#0A0A0A;" parent="1" vertex="1">
                    <mxGeometry x="701.5" y="99.5" width="50" height="20" as="geometry"/>
                </mxCell>
                <mxCell id="24" value="Maintenance Intervention" style="rounded=1;arcSize=10;whiteSpace=wrap;html=1;align=center;fontStyle=1;fillColor=#d5e8d4;strokeColor=#82b366;fontColor=#0A0A0A;" parent="1" vertex="1">
                    <mxGeometry x="682" y="393" width="100" height="40" as="geometry"/>
                </mxCell>
                <mxCell id="25" value="" style="endArrow=none;html=1;rounded=0;exitX=1;exitY=0.25;exitDx=0;exitDy=0;entryX=0;entryY=0.5;entryDx=0;entryDy=0;fontColor=#0A0A0A;strokeColor=#030303;" parent="1" source="21" target="22" edge="1">
                    <mxGeometry relative="1" as="geometry">
                        <mxPoint x="771.5" y="324.5" as="sourcePoint"/>
                        <mxPoint x="696.5" y="124.5" as="targetPoint"/>
                    </mxGeometry>
                </mxCell>
                <mxCell id="26" value="" style="endArrow=none;html=1;rounded=0;entryX=0;entryY=0.5;entryDx=0;entryDy=0;exitX=1;exitY=0;exitDx=0;exitDy=0;fontColor=#0A0A0A;strokeColor=#030303;" parent="1" source="21" target="23" edge="1">
                    <mxGeometry relative="1" as="geometry">
                        <mxPoint x="701.5" y="214.5" as="sourcePoint"/>
                        <mxPoint x="646.5" y="304.5" as="targetPoint"/>
                    </mxGeometry>
                </mxCell>
                <mxCell id="27" value="Date" style="ellipse;whiteSpace=wrap;html=1;align=center;fillColor=#f5f5f5;strokeColor=#666666;fontColor=#0A0A0A;" parent="1" vertex="1">
                    <mxGeometry x="690" y="456" width="50" height="20" as="geometry"/>
                </mxCell>
                <mxCell id="28" value="Description" style="ellipse;whiteSpace=wrap;html=1;align=center;fillColor=#f5f5f5;strokeColor=#666666;fontColor=#0A0A0A;" parent="1" vertex="1">
                    <mxGeometry x="702" y="483" width="80" height="20" as="geometry"/>
                </mxCell>
                <mxCell id="29" value="" style="endArrow=none;html=1;rounded=0;entryX=0.5;entryY=0;entryDx=0;entryDy=0;exitX=0.5;exitY=1;exitDx=0;exitDy=0;fontColor=#0A0A0A;strokeColor=#030303;" parent="1" source="24" target="27" edge="1">
                    <mxGeometry relative="1" as="geometry">
                        <mxPoint x="813.5" y="829" as="sourcePoint"/>
                        <mxPoint x="773.5" y="839" as="targetPoint"/>
                    </mxGeometry>
                </mxCell>
                <mxCell id="30" value="" style="endArrow=none;html=1;rounded=0;entryX=0.5;entryY=0;entryDx=0;entryDy=0;exitX=0.75;exitY=1;exitDx=0;exitDy=0;fontColor=#0A0A0A;strokeColor=#030303;" parent="1" source="24" target="28" edge="1">
                    <mxGeometry relative="1" as="geometry">
                        <mxPoint x="828.5" y="409.0000000000002" as="sourcePoint"/>
                        <mxPoint x="783.5" y="459" as="targetPoint"/>
                    </mxGeometry>
                </mxCell>
                <mxCell id="31" value="" style="endArrow=none;html=1;rounded=0;exitX=0.5;exitY=1;exitDx=0;exitDy=0;entryX=0.25;entryY=0;entryDx=0;entryDy=0;fontColor=#0A0A0A;strokeColor=#030303;" parent="1" source="6" target="3" edge="1">
                    <mxGeometry relative="1" as="geometry">
                        <mxPoint x="224" y="25.5" as="sourcePoint"/>
                        <mxPoint x="244" y="145.5" as="targetPoint"/>
                    </mxGeometry>
                </mxCell>
                <mxCell id="32" value="&lt;span style=&quot;border-bottom: 1px dotted&quot;&gt;CVR&lt;/span&gt;" style="ellipse;whiteSpace=wrap;html=1;align=center;fillColor=#f5f5f5;strokeColor=#666666;fontColor=#0A0A0A;" parent="1" vertex="1">
                    <mxGeometry x="224" y="152.5" width="50" height="20" as="geometry"/>
                </mxCell>
                <mxCell id="33" value="" style="endArrow=none;html=1;rounded=0;entryX=0.5;entryY=0;entryDx=0;entryDy=0;exitX=0.5;exitY=1;exitDx=0;exitDy=0;fontColor=#0A0A0A;strokeColor=#030303;" parent="1" source="32" target="3" edge="1">
                    <mxGeometry relative="1" as="geometry">
                        <mxPoint x="174.00000000000006" y="175.5" as="sourcePoint"/>
                        <mxPoint x="254" y="175.5" as="targetPoint"/>
                    </mxGeometry>
                </mxCell>
                <mxCell id="35" value="" style="endArrow=none;html=1;rounded=0;entryX=0.75;entryY=0;entryDx=0;entryDy=0;exitX=0;exitY=1;exitDx=0;exitDy=0;fontColor=#0A0A0A;strokeColor=#030303;" parent="1" source="11" target="10" edge="1">
                    <mxGeometry relative="1" as="geometry">
                        <mxPoint x="453.5" y="449" as="sourcePoint"/>
                        <mxPoint x="378.50000000000006" y="619" as="targetPoint"/>
                    </mxGeometry>
                </mxCell>
                <mxCell id="36" value="" style="endArrow=none;html=1;rounded=0;exitX=1;exitY=0.5;exitDx=0;exitDy=0;entryX=0;entryY=0.5;entryDx=0;entryDy=0;fontColor=#0A0A0A;strokeColor=#030303;" parent="1" source="18" target="21" edge="1">
                    <mxGeometry relative="1" as="geometry">
                        <mxPoint x="491.5" y="-31.5" as="sourcePoint"/>
                        <mxPoint x="501.5" y="38.5" as="targetPoint"/>
                    </mxGeometry>
                </mxCell>
                <mxCell id="37" value="0..n" style="edgeLabel;html=1;align=center;verticalAlign=middle;resizable=0;points=[];fontColor=#030303;labelBackgroundColor=none;" parent="36" connectable="0" vertex="1">
                    <mxGeometry x="0.4758" y="-5" relative="1" as="geometry">
                        <mxPoint x="5" y="3" as="offset"/>
                    </mxGeometry>
                </mxCell>
                <mxCell id="38" value="" style="endArrow=none;html=1;rounded=0;exitX=0.5;exitY=0;exitDx=0;exitDy=0;entryX=0;entryY=0.5;entryDx=0;entryDy=0;fontColor=#0A0A0A;strokeColor=#030303;" parent="1" source="10" target="39" edge="1">
                    <mxGeometry relative="1" as="geometry">
                        <mxPoint x="373.5" y="89" as="sourcePoint"/>
                        <mxPoint x="283.5" y="139" as="targetPoint"/>
                    </mxGeometry>
                </mxCell>
                <mxCell id="39" value="Reserves-a" style="shape=rhombus;perimeter=rhombusPerimeter;whiteSpace=wrap;html=1;align=center;fillColor=#dae8fc;strokeColor=#6c8ebf;fontStyle=0;fontColor=#0A0A0A;" parent="1" vertex="1">
                    <mxGeometry x="494" y="239" width="86" height="40" as="geometry"/>
                </mxCell>
                <mxCell id="40" value="" style="endArrow=none;html=1;rounded=0;fontColor=#0A0A0A;strokeColor=#030303;exitX=1;exitY=0.5;exitDx=0;exitDy=0;" parent="1" source="39" target="21" edge="1">
                    <mxGeometry relative="1" as="geometry">
                        <mxPoint x="616" y="195" as="sourcePoint"/>
                        <mxPoint x="621" y="165" as="targetPoint"/>
                    </mxGeometry>
                </mxCell>
                <mxCell id="41" value="Activity" style="ellipse;whiteSpace=wrap;html=1;align=center;fillColor=#f5f5f5;strokeColor=#666666;fontColor=#0A0A0A;" parent="1" vertex="1">
                    <mxGeometry x="393.5" y="329" width="60" height="20" as="geometry"/>
                </mxCell>
                <mxCell id="42" value="" style="endArrow=none;html=1;rounded=0;entryX=0.25;entryY=0;entryDx=0;entryDy=0;exitX=1;exitY=1;exitDx=0;exitDy=0;fontColor=#0A0A0A;strokeColor=#030303;" parent="1" source="41" target="10" edge="1">
                    <mxGeometry relative="1" as="geometry">
                        <mxPoint x="383.5" y="389" as="sourcePoint"/>
                        <mxPoint x="453.5" y="379" as="targetPoint"/>
                    </mxGeometry>
                </mxCell>
                <mxCell id="43" value="Contains" style="shape=rhombus;perimeter=rhombusPerimeter;whiteSpace=wrap;html=1;align=center;fillColor=#dae8fc;strokeColor=#6c8ebf;fontStyle=0;fontColor=#0A0A0A;" parent="1" vertex="1">
                    <mxGeometry x="428.5" y="440" width="78" height="39" as="geometry"/>
                </mxCell>
                <mxCell id="44" value="&lt;u&gt;Id&lt;/u&gt;" style="ellipse;whiteSpace=wrap;html=1;align=center;fillColor=#f5f5f5;strokeColor=#666666;fontColor=#0A0A0A;" parent="1" vertex="1">
                    <mxGeometry x="304" y="130.5" width="50" height="20" as="geometry"/>
                </mxCell>
                <mxCell id="45" value="" style="endArrow=none;html=1;rounded=0;entryX=0.75;entryY=0;entryDx=0;entryDy=0;exitX=0.5;exitY=1;exitDx=0;exitDy=0;fontColor=#0A0A0A;strokeColor=#030303;" parent="1" source="44" target="3" edge="1">
                    <mxGeometry relative="1" as="geometry">
                        <mxPoint x="224" y="25.5" as="sourcePoint"/>
                        <mxPoint x="279" y="155.5" as="targetPoint"/>
                    </mxGeometry>
                </mxCell>
                <mxCell id="47" value="BookingStartTime" style="ellipse;whiteSpace=wrap;html=1;align=center;fillColor=#f5f5f5;strokeColor=#666666;fontColor=#0A0A0A;" parent="1" vertex="1">
                    <mxGeometry x="701.5" y="160.5" width="110" height="24" as="geometry"/>
                </mxCell>
                <mxCell id="48" value="BookingEndTime" style="ellipse;whiteSpace=wrap;html=1;align=center;fillColor=#f5f5f5;strokeColor=#666666;fontColor=#0A0A0A;" parent="1" vertex="1">
                    <mxGeometry x="701.5" y="192.5" width="110" height="24" as="geometry"/>
                </mxCell>
                <mxCell id="50" value="" style="endArrow=none;html=1;rounded=0;exitX=0;exitY=0.5;exitDx=0;exitDy=0;entryX=1;entryY=0.5;entryDx=0;entryDy=0;fontColor=#0A0A0A;strokeColor=#030303;" parent="1" source="47" target="21" edge="1">
                    <mxGeometry relative="1" as="geometry">
                        <mxPoint x="596.5" y="234.5" as="sourcePoint"/>
                        <mxPoint x="761.8553390593277" y="190.35786437626894" as="targetPoint"/>
                    </mxGeometry>
                </mxCell>
                <mxCell id="51" value="" style="endArrow=none;html=1;rounded=0;exitX=0;exitY=0.5;exitDx=0;exitDy=0;entryX=1;entryY=0.75;entryDx=0;entryDy=0;fontColor=#0A0A0A;strokeColor=#030303;" parent="1" source="48" target="21" edge="1">
                    <mxGeometry relative="1" as="geometry">
                        <mxPoint x="816.5" y="174.5" as="sourcePoint"/>
                        <mxPoint x="761.8553390593277" y="218.64213562373084" as="targetPoint"/>
                    </mxGeometry>
                </mxCell>
                <mxCell id="52" value="&lt;u&gt;Id&lt;/u&gt;" style="ellipse;whiteSpace=wrap;html=1;align=center;fillColor=#f5f5f5;strokeColor=#666666;fontColor=#0A0A0A;" parent="1" vertex="1">
                    <mxGeometry x="589.5" y="75.5" width="50" height="20" as="geometry"/>
                </mxCell>
                <mxCell id="53" value="" style="endArrow=none;html=1;rounded=0;entryX=0.5;entryY=0;entryDx=0;entryDy=0;exitX=0.5;exitY=1;exitDx=0;exitDy=0;fontColor=#0A0A0A;strokeColor=#030303;" parent="1" source="52" target="21" edge="1">
                    <mxGeometry relative="1" as="geometry">
                        <mxPoint x="646.5" y="144.5" as="sourcePoint"/>
                        <mxPoint x="721.1446609406726" y="58.642135623731065" as="targetPoint"/>
                    </mxGeometry>
                </mxCell>
                <mxCell id="54" value="NumberOfPeople" style="ellipse;whiteSpace=wrap;html=1;align=center;fillColor=#f5f5f5;strokeColor=#666666;fontColor=#0A0A0A;" parent="1" vertex="1">
                    <mxGeometry x="646" y="71.5" width="117" height="24.5" as="geometry"/>
                </mxCell>
                <mxCell id="55" value="" style="endArrow=none;html=1;rounded=0;entryX=0.75;entryY=0;entryDx=0;entryDy=0;exitX=0;exitY=1;exitDx=0;exitDy=0;fontColor=#0A0A0A;strokeColor=#030303;" parent="1" source="54" target="21" edge="1">
                    <mxGeometry relative="1" as="geometry">
                        <mxPoint x="476.5" y="104.5" as="sourcePoint"/>
                        <mxPoint x="546.5" y="164.5" as="targetPoint"/>
                    </mxGeometry>
                </mxCell>
                <mxCell id="56" value="&lt;u&gt;Id&lt;/u&gt;" style="ellipse;whiteSpace=wrap;html=1;align=center;fillColor=#f5f5f5;strokeColor=#666666;fontColor=#0A0A0A;" parent="1" vertex="1">
                    <mxGeometry x="739" y="349" width="35" height="20" as="geometry"/>
                </mxCell>
                <mxCell id="57" value="" style="endArrow=none;html=1;rounded=0;exitX=0.75;exitY=0;exitDx=0;exitDy=0;fontColor=#0A0A0A;strokeColor=#030303;" parent="1" source="24" target="56" edge="1">
                    <mxGeometry relative="1" as="geometry">
                        <mxPoint x="878.5" y="409" as="sourcePoint"/>
                        <mxPoint x="963.5" y="439" as="targetPoint"/>
                    </mxGeometry>
                </mxCell>
                <mxCell id="58" value="undergoes" style="shape=rhombus;perimeter=rhombusPerimeter;whiteSpace=wrap;html=1;align=center;fillColor=#dae8fc;strokeColor=#6c8ebf;fontColor=#0A0A0A;" parent="1" vertex="1">
                    <mxGeometry x="574" y="384" width="75" height="37.5" as="geometry"/>
                </mxCell>
                <mxCell id="59" value="" style="endArrow=none;html=1;rounded=0;exitX=0;exitY=0.5;exitDx=0;exitDy=0;entryX=1;entryY=0.5;entryDx=0;entryDy=0;fontColor=#0A0A0A;strokeColor=#030303;" parent="1" source="58" target="10" edge="1">
                    <mxGeometry relative="1" as="geometry">
                        <mxPoint x="723.5" y="219" as="sourcePoint"/>
                        <mxPoint x="678.7130657752182" y="203.19881684484608" as="targetPoint"/>
                    </mxGeometry>
                </mxCell>
                <mxCell id="60" value="n" style="edgeLabel;html=1;align=center;verticalAlign=middle;resizable=0;points=[];fontColor=#030303;labelBackgroundColor=none;" parent="59" connectable="0" vertex="1">
                    <mxGeometry x="0.6578" y="-1" relative="1" as="geometry">
                        <mxPoint y="-6" as="offset"/>
                    </mxGeometry>
                </mxCell>
                <mxCell id="61" value="" style="endArrow=none;html=1;rounded=0;exitX=0;exitY=0.25;exitDx=0;exitDy=0;entryX=1;entryY=0.5;entryDx=0;entryDy=0;fontColor=#0A0A0A;strokeColor=#030303;" parent="1" source="24" target="58" edge="1">
                    <mxGeometry relative="1" as="geometry">
                        <mxPoint x="733.5" y="229" as="sourcePoint"/>
                        <mxPoint x="688.7130657752182" y="213.19881684484608" as="targetPoint"/>
                    </mxGeometry>
                </mxCell>
                <mxCell id="62" value="n" style="edgeLabel;html=1;align=center;verticalAlign=middle;resizable=0;points=[];fontColor=#030303;labelBackgroundColor=none;" parent="61" connectable="0" vertex="1">
                    <mxGeometry x="-0.3532" y="-1" relative="1" as="geometry">
                        <mxPoint x="-1" y="-11" as="offset"/>
                    </mxGeometry>
                </mxCell>
                <mxCell id="63" value="Municipality" style="rounded=1;arcSize=10;whiteSpace=wrap;html=1;align=center;fontStyle=1;fillColor=#d5e8d4;strokeColor=#82b366;fontColor=#0A0A0A;" parent="1" vertex="1">
                    <mxGeometry x="153.5" y="359" width="100" height="40" as="geometry"/>
                </mxCell>
                <mxCell id="64" value="" style="endArrow=none;html=1;rounded=0;entryX=0;entryY=0.5;entryDx=0;entryDy=0;exitX=1;exitY=0.5;exitDx=0;exitDy=0;fontColor=#0A0A0A;strokeColor=#030303;" parent="1" source="63" target="66" edge="1">
                    <mxGeometry relative="1" as="geometry">
                        <mxPoint x="242.5" y="379" as="sourcePoint"/>
                        <mxPoint x="282.5" y="379" as="targetPoint"/>
                    </mxGeometry>
                </mxCell>
                <mxCell id="65" value="1" style="edgeLabel;html=1;align=center;verticalAlign=middle;resizable=0;points=[];fontColor=#030303;labelBackgroundColor=none;" parent="64" connectable="0" vertex="1">
                    <mxGeometry x="-0.4926" y="1" relative="1" as="geometry">
                        <mxPoint x="5" y="-8" as="offset"/>
                    </mxGeometry>
                </mxCell>
                <mxCell id="66" value="Has" style="shape=rhombus;perimeter=rhombusPerimeter;whiteSpace=wrap;html=1;align=center;fillColor=#dae8fc;strokeColor=#6c8ebf;fontStyle=0;fontColor=#0A0A0A;" parent="1" vertex="1">
                    <mxGeometry x="293.5" y="359" width="80" height="40" as="geometry"/>
                </mxCell>
                <mxCell id="67" value="" style="endArrow=none;html=1;rounded=0;entryX=1;entryY=0.5;entryDx=0;entryDy=0;exitX=0;exitY=0.5;exitDx=0;exitDy=0;fontColor=#0A0A0A;strokeColor=#0A0A0A;" parent="1" source="10" target="66" edge="1">
                    <mxGeometry relative="1" as="geometry">
                        <mxPoint x="263.5" y="369" as="sourcePoint"/>
                        <mxPoint x="293.5" y="369" as="targetPoint"/>
                    </mxGeometry>
                </mxCell>
                <mxCell id="68" value="n...*" style="edgeLabel;html=1;align=center;verticalAlign=middle;resizable=0;points=[];fontColor=#030303;labelBackgroundColor=none;" parent="67" connectable="0" vertex="1">
                    <mxGeometry x="-0.4646" relative="1" as="geometry">
                        <mxPoint x="-6" y="-9" as="offset"/>
                    </mxGeometry>
                </mxCell>
                <mxCell id="69" value="&lt;u&gt;Id&lt;/u&gt;" style="ellipse;whiteSpace=wrap;html=1;align=center;fillColor=#f5f5f5;strokeColor=#666666;fontColor=#0A0A0A;" parent="1" vertex="1">
                    <mxGeometry x="153.5" y="312" width="50" height="20" as="geometry"/>
                </mxCell>
                <mxCell id="70" value="Name" style="ellipse;whiteSpace=wrap;html=1;align=center;fillColor=#f5f5f5;strokeColor=#666666;fontColor=#0A0A0A;" parent="1" vertex="1">
                    <mxGeometry x="203.5" y="329" width="50" height="20" as="geometry"/>
                </mxCell>
                <mxCell id="71" value="" style="endArrow=none;html=1;rounded=0;entryX=0.25;entryY=0;entryDx=0;entryDy=0;exitX=0.5;exitY=1;exitDx=0;exitDy=0;fontColor=#0A0A0A;strokeColor=#030303;" parent="1" source="69" target="63" edge="1">
                    <mxGeometry relative="1" as="geometry">
                        <mxPoint x="443.5" y="159" as="sourcePoint"/>
                        <mxPoint x="523.5" y="149" as="targetPoint"/>
                    </mxGeometry>
                </mxCell>
                <mxCell id="72" value="" style="endArrow=none;html=1;rounded=0;entryX=0.75;entryY=0;entryDx=0;entryDy=0;exitX=0.5;exitY=1;exitDx=0;exitDy=0;fontColor=#0A0A0A;strokeColor=#030303;" parent="1" source="70" target="63" edge="1">
                    <mxGeometry relative="1" as="geometry">
                        <mxPoint x="273.5" y="319" as="sourcePoint"/>
                        <mxPoint x="273.5" y="369" as="targetPoint"/>
                    </mxGeometry>
                </mxCell>
                <mxCell id="73" value="" style="endArrow=none;html=1;rounded=0;entryX=0.5;entryY=1;entryDx=0;entryDy=0;exitX=0.5;exitY=0;exitDx=0;exitDy=0;fontColor=#0A0A0A;strokeColor=#030303;" parent="1" source="43" target="10" edge="1">
                    <mxGeometry relative="1" as="geometry">
                        <mxPoint x="578.1446609406785" y="454.85786437627144" as="sourcePoint"/>
                        <mxPoint x="528.5" y="409" as="targetPoint"/>
                    </mxGeometry>
                </mxCell>
                <mxCell id="74" value="1" style="edgeLabel;html=1;align=center;verticalAlign=middle;resizable=0;points=[];fontColor=#030303;labelBackgroundColor=none;" parent="73" connectable="0" vertex="1">
                    <mxGeometry x="0.7799" y="1" relative="1" as="geometry">
                        <mxPoint x="3" y="11" as="offset"/>
                    </mxGeometry>
                </mxCell>
                <mxCell id="75" value="" style="endArrow=none;html=1;rounded=0;entryX=0.5;entryY=1;entryDx=0;entryDy=0;exitX=0.5;exitY=0;exitDx=0;exitDy=0;fontColor=#0A0A0A;strokeColor=#030303;" parent="1" source="12" target="43" edge="1">
                    <mxGeometry relative="1" as="geometry">
                        <mxPoint x="503.5" y="559" as="sourcePoint"/>
                        <mxPoint x="473.5" y="519" as="targetPoint"/>
                    </mxGeometry>
                </mxCell>
                <mxCell id="76" value="n" style="edgeLabel;html=1;align=center;verticalAlign=middle;resizable=0;points=[];fontColor=#030303;labelBackgroundColor=none;" parent="75" connectable="0" vertex="1">
                    <mxGeometry x="-0.4687" relative="1" as="geometry">
                        <mxPoint x="-24" y="4" as="offset"/>
                    </mxGeometry>
                </mxCell>
                <mxCell id="77" value="&lt;u&gt;Id&lt;/u&gt;" style="ellipse;whiteSpace=wrap;html=1;align=center;fillColor=#f5f5f5;strokeColor=#666666;fontColor=#0A0A0A;" parent="1" vertex="1">
                    <mxGeometry x="280.5" y="617.7099999999999" width="40" height="16" as="geometry"/>
                </mxCell>
                <mxCell id="78" value="" style="endArrow=none;html=1;rounded=0;entryX=0.25;entryY=1;entryDx=0;entryDy=0;exitX=1;exitY=0.5;exitDx=0;exitDy=0;fontColor=#0A0A0A;strokeColor=#0A0A0A;" parent="1" source="77" target="12" edge="1">
                    <mxGeometry relative="1" as="geometry">
                        <mxPoint x="439" y="567.6600000000001" as="sourcePoint"/>
                        <mxPoint x="389" y="477.66000000000014" as="targetPoint"/>
                    </mxGeometry>
                </mxCell>
                <mxCell id="81" value="Latitude" style="ellipse;whiteSpace=wrap;html=1;align=center;fillColor=#f5f5f5;strokeColor=#666666;fontColor=#0A0A0A;" parent="1" vertex="1">
                    <mxGeometry x="283.5" y="451.5" width="100" height="20" as="geometry"/>
                </mxCell>
                <mxCell id="82" value="" style="endArrow=none;html=1;rounded=0;entryX=0.25;entryY=1;entryDx=0;entryDy=0;exitX=1;exitY=0.5;exitDx=0;exitDy=0;fontColor=#0A0A0A;strokeColor=#0A0A0A;" parent="1" source="81" target="10" edge="1">
                    <mxGeometry relative="1" as="geometry">
                        <mxPoint x="298.5" y="449" as="sourcePoint"/>
                        <mxPoint x="418.5" y="451" as="targetPoint"/>
                    </mxGeometry>
                </mxCell>
                <mxCell id="83" value="Longitude" style="ellipse;whiteSpace=wrap;html=1;align=center;fillColor=#f5f5f5;strokeColor=#666666;fontColor=#0A0A0A;" parent="1" vertex="1">
                    <mxGeometry x="283.5" y="421.5" width="100" height="20" as="geometry"/>
                </mxCell>
                <mxCell id="86" value="" style="endArrow=none;html=1;rounded=0;exitX=1;exitY=0.5;exitDx=0;exitDy=0;entryX=0;entryY=0.75;entryDx=0;entryDy=0;fontColor=#0A0A0A;strokeColor=#0A0A0A;" parent="1" source="83" target="10" edge="1">
                    <mxGeometry relative="1" as="geometry">
                        <mxPoint x="258.5" y="499" as="sourcePoint"/>
                        <mxPoint x="398.74" y="449.548" as="targetPoint"/>
                    </mxGeometry>
                </mxCell>
                <mxCell id="87" value="Description" style="ellipse;whiteSpace=wrap;html=1;align=center;fillColor=#f5f5f5;strokeColor=#666666;fontColor=#0A0A0A;" parent="1" vertex="1">
                    <mxGeometry x="392" y="299" width="84" height="20" as="geometry"/>
                </mxCell>
                <mxCell id="88" value="" style="endArrow=none;html=1;rounded=0;entryX=1;entryY=1;entryDx=0;entryDy=0;exitX=0.5;exitY=0;exitDx=0;exitDy=0;fontColor=#0A0A0A;strokeColor=#030303;" parent="1" source="10" target="87" edge="1">
                    <mxGeometry relative="1" as="geometry">
                        <mxPoint x="593.5" y="489" as="sourcePoint"/>
                        <mxPoint x="528.5" y="409" as="targetPoint"/>
                    </mxGeometry>
                </mxCell>
                <mxCell id="89" value="UsageRules" style="ellipse;whiteSpace=wrap;html=1;align=center;fillColor=#f5f5f5;strokeColor=#666666;fontColor=#0A0A0A;" parent="1" vertex="1">
                    <mxGeometry x="549" y="335" width="100" height="20" as="geometry"/>
                </mxCell>
                <mxCell id="90" value="" style="endArrow=none;html=1;rounded=0;entryX=0;entryY=0.5;entryDx=0;entryDy=0;exitX=1;exitY=0;exitDx=0;exitDy=0;fontColor=#0A0A0A;strokeColor=#030303;" parent="1" source="10" target="89" edge="1">
                    <mxGeometry relative="1" as="geometry">
                        <mxPoint x="643.5" y="469" as="sourcePoint"/>
                        <mxPoint x="633.5" y="559.0000000000002" as="targetPoint"/>
                    </mxGeometry>
                </mxCell>
                <mxCell id="93" value="Status" style="ellipse;whiteSpace=wrap;html=1;align=center;fillColor=#f5f5f5;strokeColor=#666666;fontColor=#0A0A0A;" parent="1" vertex="1">
                    <mxGeometry x="241.5" y="585.7099999999998" width="60" height="21.82" as="geometry"/>
                </mxCell>
                <mxCell id="95" value="" style="endArrow=none;html=1;rounded=0;entryX=1;entryY=0.5;entryDx=0;entryDy=0;exitX=0;exitY=0.75;exitDx=0;exitDy=0;fontColor=#0A0A0A;strokeColor=#0A0A0A;" parent="1" source="12" target="93" edge="1">
                    <mxGeometry relative="1" as="geometry">
                        <mxPoint x="389.0000000000002" y="637.6600000000001" as="sourcePoint"/>
                        <mxPoint x="389.0000000000002" y="587.6600000000005" as="targetPoint"/>
                    </mxGeometry>
                </mxCell>
                <mxCell id="99" value="Manages" style="shape=rhombus;perimeter=rhombusPerimeter;whiteSpace=wrap;html=1;align=center;fillColor=#dae8fc;strokeColor=#6c8ebf;fontStyle=0;fontColor=#0A0A0A;" parent="1" vertex="1">
                    <mxGeometry x="527.67" y="465" width="86.66" height="43.33" as="geometry"/>
                </mxCell>
                <mxCell id="100" value="Manages" style="shape=rhombus;perimeter=rhombusPerimeter;whiteSpace=wrap;html=1;align=center;fillColor=#dae8fc;strokeColor=#6c8ebf;fontStyle=0;fontColor=#0A0A0A;" parent="1" vertex="1">
                    <mxGeometry x="383.5" y="239" width="80" height="40" as="geometry"/>
                </mxCell>
                <mxCell id="101" value="" style="endArrow=none;html=1;rounded=0;entryX=1;entryY=0.5;entryDx=0;entryDy=0;exitX=0.25;exitY=1;exitDx=0;exitDy=0;fontColor=#0A0A0A;strokeColor=#030303;" parent="1" source="24" target="99" edge="1">
                    <mxGeometry relative="1" as="geometry">
                        <mxPoint x="878.5" y="409" as="sourcePoint"/>
                        <mxPoint x="963.5" y="439" as="targetPoint"/>
                    </mxGeometry>
                </mxCell>
                <mxCell id="102" value="1" style="edgeLabel;html=1;align=center;verticalAlign=middle;resizable=0;points=[];fontColor=#030303;labelBackgroundColor=none;" parent="101" connectable="0" vertex="1">
                    <mxGeometry x="-0.8063" y="-6" relative="1" as="geometry">
                        <mxPoint x="-17" y="7" as="offset"/>
                    </mxGeometry>
                </mxCell>
                <mxCell id="103" value="" style="endArrow=none;html=1;rounded=0;exitX=1;exitY=0.25;exitDx=0;exitDy=0;entryX=0;entryY=0.5;entryDx=0;entryDy=0;fontColor=#0A0A0A;strokeColor=#030303;" parent="1" source="12" target="99" edge="1">
                    <mxGeometry relative="1" as="geometry">
                        <mxPoint x="853.5" y="409" as="sourcePoint"/>
                        <mxPoint x="783.5" y="639" as="targetPoint"/>
                    </mxGeometry>
                </mxCell>
                <mxCell id="104" value="0..n" style="edgeLabel;html=1;align=center;verticalAlign=middle;resizable=0;points=[];fontColor=#030303;labelBackgroundColor=none;" parent="103" connectable="0" vertex="1">
                    <mxGeometry x="-0.7661" y="2" relative="1" as="geometry">
                        <mxPoint x="-2" y="-14" as="offset"/>
                    </mxGeometry>
                </mxCell>
                <mxCell id="105" value="" style="endArrow=none;html=1;rounded=0;entryX=0;entryY=0.5;entryDx=0;entryDy=0;exitX=1;exitY=0;exitDx=0;exitDy=0;fontColor=#0A0A0A;strokeColor=#030303;" parent="1" source="63" target="100" edge="1">
                    <mxGeometry relative="1" as="geometry">
                        <mxPoint x="853.5" y="369" as="sourcePoint"/>
                        <mxPoint x="853.5" y="619" as="targetPoint"/>
                    </mxGeometry>
                </mxCell>
                <mxCell id="106" value="1" style="edgeLabel;html=1;align=center;verticalAlign=middle;resizable=0;points=[];fontColor=#030303;labelBackgroundColor=none;" parent="105" connectable="0" vertex="1">
                    <mxGeometry x="-0.8063" y="-6" relative="1" as="geometry">
                        <mxPoint as="offset"/>
                    </mxGeometry>
                </mxCell>
                <mxCell id="107" value="" style="endArrow=none;html=1;rounded=0;entryX=0.25;entryY=1;entryDx=0;entryDy=0;exitX=1;exitY=0.5;exitDx=0;exitDy=0;fontColor=#0A0A0A;strokeColor=#030303;" parent="1" source="100" target="21" edge="1">
                    <mxGeometry relative="1" as="geometry">
                        <mxPoint x="693.5" y="269" as="sourcePoint"/>
                        <mxPoint x="853.5" y="-1" as="targetPoint"/>
                    </mxGeometry>
                </mxCell>
                <mxCell id="108" value="0..n" style="edgeLabel;html=1;align=center;verticalAlign=middle;resizable=0;points=[];fontColor=#030303;labelBackgroundColor=none;" parent="107" connectable="0" vertex="1">
                    <mxGeometry x="0.8827" y="-6" relative="1" as="geometry">
                        <mxPoint x="-6" y="14" as="offset"/>
                    </mxGeometry>
                </mxCell>
                <mxCell id="109" value="LastName" style="ellipse;whiteSpace=wrap;html=1;align=center;fillColor=#f5f5f5;strokeColor=#666666;fontColor=#0A0A0A;" parent="1" vertex="1">
                    <mxGeometry x="96.5" y="189" width="80" height="20" as="geometry"/>
                </mxCell>
                <mxCell id="111" value="" style="endArrow=none;html=1;rounded=0;entryX=0;entryY=0.25;entryDx=0;entryDy=0;exitX=1;exitY=0.5;exitDx=0;exitDy=0;fontColor=#0A0A0A;strokeColor=#030303;" parent="1" source="109" target="3" edge="1">
                    <mxGeometry relative="1" as="geometry">
                        <mxPoint x="366.5" y="25.5" as="sourcePoint"/>
                        <mxPoint x="304" y="155.5" as="targetPoint"/>
                    </mxGeometry>
                </mxCell>
                <mxCell id="119" value="0..n" style="edgeLabel;html=1;align=center;verticalAlign=middle;resizable=0;points=[];fontColor=#030303;labelBackgroundColor=none;" parent="1" connectable="0" vertex="1">
                    <mxGeometry x="598.9972924181633" y="189.00068372156667" as="geometry"/>
                </mxCell>
                <mxCell id="120" value="1" style="edgeLabel;html=1;align=center;verticalAlign=middle;resizable=0;points=[];fontColor=#030303;labelBackgroundColor=none;" parent="1" connectable="0" vertex="1">
                    <mxGeometry x="493.4972924181633" y="329.0006837215667" as="geometry">
                        <mxPoint x="6" y="6" as="offset"/>
                    </mxGeometry>
                </mxCell>
                <mxCell id="121" value="CPR" style="ellipse;whiteSpace=wrap;align=center;fillColor=#f5f5f5;strokeColor=#666666;fontColor=#0A0A0A;" parent="1" vertex="1">
                    <mxGeometry x="237" y="110.5" width="50" height="20" as="geometry"/>
                </mxCell>
                <mxCell id="122" value="" style="endArrow=none;html=1;rounded=0;entryX=0.5;entryY=0;entryDx=0;entryDy=0;exitX=1;exitY=1;exitDx=0;exitDy=0;fontColor=#0A0A0A;strokeColor=#030303;" parent="1" source="121" target="3" edge="1">
                    <mxGeometry relative="1" as="geometry">
                        <mxPoint x="304" y="144" as="sourcePoint"/>
                        <mxPoint x="304" y="209" as="targetPoint"/>
                    </mxGeometry>
                </mxCell>
                <mxCell id="123" value="CitizensCPR" style="ellipse;whiteSpace=wrap;align=center;fillColor=#f5f5f5;strokeColor=#666666;fontColor=#0A0A0A;" vertex="1" parent="1">
                    <mxGeometry x="562.6700000000001" y="45" width="97.67" height="20" as="geometry"/>
                </mxCell>
                <mxCell id="124" value="" style="endArrow=none;html=1;rounded=0;entryX=0.25;entryY=0;entryDx=0;entryDy=0;exitX=0;exitY=1;exitDx=0;exitDy=0;fontColor=#0A0A0A;strokeColor=#030303;" edge="1" parent="1" source="123" target="21">
                    <mxGeometry relative="1" as="geometry">
                        <mxPoint x="553" y="82.99999999999989" as="sourcePoint"/>
                        <mxPoint x="525" y="122" as="targetPoint"/>
                    </mxGeometry>
                </mxCell>
            </root>
        </mxGraphModel>
    </diagram>
</mxfile>